HIERARCHY
ROOT Hips
{
	OFFSET	0.00	0.00	0.00
	CHANNELS 6 Xposition Yposition Zposition Zrotation Xrotation Yrotation
	JOINT LeftUpLeg
	{
		OFFSET	 0.126116	-0.014019	-0.065224
		CHANNELS 3 Zrotation Xrotation Yrotation
		JOINT LeftLeg
		{
			OFFSET	 0.000000	 0.000000	 0.569914
			CHANNELS 3 Zrotation Xrotation Yrotation
			JOINT LeftFoot
			{
				OFFSET	 0.000000	 0.000000	 0.544423
				CHANNELS 3 Zrotation Xrotation Yrotation
				JOINT LeftToeBase
				{
					OFFSET	 0.000000	 0.000000	 0.207117
					CHANNELS 3 Zrotation Xrotation Yrotation
					End Site
					{
						OFFSET	 0.000000	 0.000000	 0.207117
					}
				}
			}
		}
	}
	JOINT RightUpLeg
	{
		OFFSET	-0.124023	-0.008373	-0.065224
		CHANNELS 3 Zrotation Xrotation Yrotation
		JOINT RightLeg
		{
			OFFSET	 0.000000	 0.000000	 0.570047
			CHANNELS 3 Zrotation Xrotation Yrotation
			JOINT RightFoot
			{
				OFFSET	 0.000000	 0.000000	 0.544354
				CHANNELS 3 Zrotation Xrotation Yrotation
				JOINT RightToeBase
				{
					OFFSET	 0.000000	 0.000000	 0.207540
					CHANNELS 3 Zrotation Xrotation Yrotation
					End Site
					{
						OFFSET	 0.000000	 0.000000	 0.207540
					}
				}
			}
		}
	}
	JOINT Spine
	{
		OFFSET	 0.000184	-0.007763	 0.117403
		CHANNELS 3 Zrotation Xrotation Yrotation
		JOINT Spine1
		{
			OFFSET	 0.000000	 0.000000	 0.137269
			CHANNELS 3 Zrotation Xrotation Yrotation
			JOINT Spine2
			{
				OFFSET	 0.000000	 0.000000	 0.156879
				CHANNELS 3 Zrotation Xrotation Yrotation
				JOINT LeftShoulder
				{
					OFFSET	 0.080501	-0.002496	 0.160144
					CHANNELS 3 Zrotation Xrotation Yrotation
					JOINT LeftArm
					{
						OFFSET	 0.000000	 0.000000	 0.164363
						CHANNELS 3 Zrotation Xrotation Yrotation
						JOINT LeftForeArm
						{
							OFFSET	 0.000000	 0.000000	 0.364576
							CHANNELS 3 Zrotation Xrotation Yrotation
							JOINT LeftHand
							{
								OFFSET	 0.000000	 0.000000	 0.360812
								CHANNELS 3 Zrotation Xrotation Yrotation
								JOINT LeftHandIndex1
								{
									OFFSET	 0.000000	 0.000000	 0.086006
									CHANNELS 3 Zrotation Xrotation Yrotation
									JOINT LeftHandIndex2
									{
										OFFSET	 0.000000	 0.000000	 0.047237
										CHANNELS 3 Zrotation Xrotation Yrotation
										JOINT LeftHandIndex3
										{
											OFFSET	-0.004284	-0.000551	 0.038165
											CHANNELS 3 Zrotation Xrotation Yrotation
											End Site
											{
												OFFSET	-0.004284	-0.000551	 0.038165
											}
										}
									}
								}
							}
						}
					}
				}
				JOINT Neck
				{
					OFFSET	 0.000000	 0.000000	 0.176489
					CHANNELS 3 Zrotation Xrotation Yrotation
					JOINT Head
					{
						OFFSET	 0.000000	-0.001747	 0.077940
						CHANNELS 3 Zrotation Xrotation Yrotation
						End Site
						{
							OFFSET	 0.000000	-0.001747	 0.077940
						}
					}
				}
				JOINT RightShoulder
				{
					OFFSET	-0.080363	 0.000306	 0.159706
					CHANNELS 3 Zrotation Xrotation Yrotation
					JOINT RightArm
					{
						OFFSET	 0.000000	 0.000000	 0.164196
						CHANNELS 3 Zrotation Xrotation Yrotation
						JOINT RightForeArm
						{
							OFFSET	 0.000000	 0.000000	 0.365611
							CHANNELS 3 Zrotation Xrotation Yrotation
							JOINT RightHand
							{
								OFFSET	 0.000000	 0.000000	 0.360648
								CHANNELS 3 Zrotation Xrotation Yrotation
								JOINT RightHandIndex1
								{
									OFFSET	 0.000000	 0.000000	 0.069977
									CHANNELS 3 Zrotation Xrotation Yrotation
									JOINT RightHandIndex2
									{
										OFFSET	 0.000000	 0.000000	 0.052305
										CHANNELS 3 Zrotation Xrotation Yrotation
										JOINT RightHandIndex3
										{
											OFFSET	 0.009002	-0.000782	 0.042196
											CHANNELS 3 Zrotation Xrotation Yrotation
											End Site
											{
												OFFSET	 0.009002	-0.000782	 0.042196
											}
										}
									}
								}
							}
						}
					}
				}
			}
		}
	}
}
MOTION
Frames:    11
Frame Time: 0.03333334
-0.373056	 0.145549	 1.247052	-172.458800	 5.397997	 16.935760	 13.009340	-12.572670	 170.497400	-10.394550	-50.598110	-8.507451	 119.243900	 68.927390	-135.346400	-2.385833	 28.452760	 0.000004	-5.011124	-45.747510	 152.921600	 5.886327	-49.386860	 3.315274	 1.485331	 64.626370	 19.362070	 2.384659	 28.388700	-0.000001	 43.391450	-16.820840	-2.393624	 48.798660	 25.958270	 15.425390	-6.323380	-8.877161	-11.368380	-91.776200	 78.527380	 180.000000	 6.893628	 54.084350	-20.059140	-2.945676	-3.031547	-107.570500	 4.836294	-29.099910	-0.532965	-4.130319	 21.525730	 0.991547	-5.167930	 0.731704	 3.519349	-1.378229	 35.397820	-2.634230	-17.598940	 7.756568	 8.000510	-22.674640	-23.102920	-16.178320	 89.782130	 78.393400	-179.997100	 22.412640	 50.272460	 17.842070	-14.770970	-7.286821	 39.593180	-65.631690	-10.641850	-149.663900	 5.716227	 19.173190	-3.685159	 5.027444	 0.246877	-9.377972	-2.350882	 35.473990	 5.254307
-0.391579	 0.169435	 1.250848	-171.679100	 5.752573	 14.361670	 15.439860	-7.961684	 173.412900	-9.929183	-44.903720	-7.447180	 118.124000	 67.675060	-133.450300	-2.385833	 28.452760	 0.000004	-1.166482	-44.486460	 158.400900	 5.925585	-50.294110	 3.390045	 2.782930	 67.778370	 16.108190	 2.384659	 28.388700	-0.000001	 39.171970	-13.458730	-2.132298	 44.339770	 22.907110	 18.713300	-5.604091	-7.511738	-11.390990	-91.776180	 78.527380	-180.000000	-3.813923	 48.741700	-4.726111	-2.995041	-2.864733	-109.410000	 5.326883	-28.331460	-0.343627	-4.130319	 21.525730	 0.991547	-5.167930	 0.731704	 3.519349	-1.378229	 35.397820	-2.634230	-16.987370	 7.677290	 8.258277	-22.068450	-23.180030	-15.972560	 89.782080	 78.369110	-179.997900	 27.198810	 15.131980	 0.682514	-13.490710	-7.481863	 44.923910	-41.940840	-8.169412	-119.118900	 5.716227	 19.173190	-3.685159	 5.027444	 0.246877	-9.377972	-2.350882	 35.473990	 5.254307
-0.406561	 0.191823	 1.255241	-170.832100	 5.835850	 12.722410	 17.544930	-4.257629	 175.129400	-9.734189	-40.028240	-6.663768	 116.535400	 66.569310	-131.198800	-2.385833	 28.452760	 0.000004	 1.832041	-42.679120	 161.861100	 5.593451	-49.767680	 3.109958	 4.188010	 69.706190	 12.988430	 2.384659	 28.388700	-0.000001	 35.108780	-11.419150	-0.858238	 40.992990	 18.990020	 21.274990	-4.824574	-5.544012	-11.901040	-91.776150	 78.527400	 180.000000	-11.111140	 43.173480	 8.011392	-2.881351	-2.428604	-110.241200	 5.740111	-28.235000	-0.301941	-4.130319	 21.525730	 0.991547	-5.167930	 0.731704	 3.519349	-1.378229	 35.397820	-2.634230	-16.282080	 7.702606	 8.315980	-21.535890	-23.360680	-15.621050	 89.782100	 78.342670	-179.998800	 44.561200	-2.611155	-10.957570	-13.188530	-7.819803	 47.380140	-45.723880	-0.647421	-90.687330	 5.716227	 19.173190	-3.685159	 5.027444	 0.246877	-9.377972	-2.350882	 35.473990	 5.254307
-0.415583	 0.210324	 1.259401	-170.214600	 5.490271	 11.465340	 18.776180	-0.367377	 175.963200	-9.825556	-35.624860	-6.094254	 114.756800	 66.155610	-128.710000	-2.385833	 28.452760	 0.000004	 4.036200	-40.582390	 164.041200	 5.283361	-49.415160	 2.857778	 5.363962	 71.383960	 10.659520	 2.384659	 28.388700	-0.000001	 31.706140	-9.353842	 0.146742	 38.464220	 15.100850	 23.272390	-4.037110	-3.592116	-12.199620	-91.776180	 78.527360	 180.000000	-14.824340	 38.596250	 17.002570	-2.724369	-1.818499	-112.097100	 5.928769	-28.115070	-0.464123	-4.130319	 21.525730	 0.991547	-5.167930	 0.731704	 3.519349	-1.378229	 35.397820	-2.634230	-15.623420	 8.428791	 8.466456	-21.193340	-23.885810	-16.084020	 89.782040	 78.321870	-179.999200	 50.123580	-14.421400	-14.657900	-13.082140	-7.703288	 47.386970	-46.085570	 1.265628	-73.826980	 5.716227	 19.173190	-3.685159	 5.027444	 0.246877	-9.377972	-2.350882	 35.473990	 5.254307
-0.420418	 0.222134	 1.262679	-169.637900	 4.422022	 9.985860	 19.828730	 3.875773	 176.811400	-9.968986	-30.552520	-5.397998	 112.107300	 66.042600	-125.066900	-2.385833	 28.452760	 0.000004	 7.096463	-39.041310	 166.693900	 4.510165	-49.402380	 2.269274	 8.278262	 72.111110	 7.122267	 2.384659	 28.388700	-0.000001	 28.951740	-6.750965	 1.718281	 36.654930	 10.416270	 24.990720	-3.094338	-1.382320	-12.222870	-91.776210	 78.527360	-180.000000	-17.193700	 36.155410	 22.720890	-2.603296	-1.395842	-113.852900	 6.289647	-27.882220	-0.539870	-4.130319	 21.525730	 0.991547	-5.167930	 0.731704	 3.519349	-1.378229	 35.397820	-2.634230	-14.503700	 8.971265	 7.422693	-20.509380	-24.394180	-14.810370	 89.782100	 78.309460	-180.000000	 48.895380	-18.491600	-15.475110	-13.059910	-7.404049	 46.353120	-43.747360	 1.342754	-66.384640	 5.716227	 19.173190	-3.685159	 5.027444	 0.246877	-9.377972	-2.350882	 35.473990	 5.254307
-0.420946	 0.225979	 1.264110	-169.157000	 3.696479	 9.806491	 21.241390	 4.878397	 176.144600	-10.678220	-29.378770	-5.568213	 113.105700	 66.089840	-125.269100	-2.385833	 28.452760	 0.000004	 9.050954	-37.913220	 167.317100	 3.796519	-48.201080	 1.695532	 9.850067	 71.320620	 5.202985	 2.384659	 28.388700	-0.000001	 27.060070	-5.206532	 1.757020	 35.901150	 7.351631	 25.893420	-2.327710	 0.187962	-12.056830	-91.776170	 78.527400	 180.000000	-19.212530	 36.224510	 24.567690	-2.512960	-1.175852	-114.134700	 6.741944	-28.043880	-0.502436	-4.130319	 21.525730	 0.991547	-5.167930	 0.731704	 3.519349	-1.378229	 35.397820	-2.634230	-13.632480	 8.400630	 7.320720	-19.812330	-23.739220	-14.306050	 89.782100	 78.301610	 179.999800	 46.860170	-18.501860	-15.243130	-13.176840	-7.355064	 45.684990	-41.317800	 0.746481	-63.621500	 5.716227	 19.173190	-3.685159	 5.027444	 0.246877	-9.377972	-2.350882	 35.473990	 5.254307
-0.420620	 0.226262	 1.265129	-169.180500	 2.938904	 9.606987	 22.262080	 5.767439	 175.790300	-11.507180	-28.701510	-5.862646	 115.265900	 66.044830	-126.421000	-2.385833	 28.452760	 0.000004	 10.151270	-36.999800	 167.653000	 3.238493	-47.607670	 1.267404	 10.602420	 70.796880	 4.639054	 2.384659	 28.388700	-0.000001	 26.628350	-3.544828	 1.694122	 35.745980	 5.599286	 26.409790	-2.012210	 0.926145	-11.732510	-91.776210	 78.527400	-180.000000	-19.976050	 36.610290	 24.591290	-2.456860	-1.053108	-114.081200	 6.774981	-28.051980	-0.543363	-4.130319	 21.525730	 0.991547	-5.167930	 0.731704	 3.519349	-1.378229	 35.397820	-2.634230	-13.241530	 8.423299	 7.561445	-19.517280	-23.401830	-15.310120	 89.782100	 78.302120	 179.999700	 46.033550	-17.710010	-15.461200	-13.294280	-7.622829	 46.230090	-39.661840	 1.478329	-62.977540	 5.716227	 19.173190	-3.685159	 5.027444	 0.246877	-9.377972	-2.350882	 35.473990	 5.254307
-0.420492	 0.226524	 1.265478	-169.851400	 3.133221	 9.546433	 23.540770	 5.696818	 175.737200	-12.197910	-28.270390	-6.121762	 117.139800	 64.729490	-127.476800	-2.385833	 28.452760	 0.000004	 11.218450	-37.486370	 167.965500	 2.638812	-47.732200	 0.826029	 13.655840	 70.258290	 1.410219	 2.384659	 28.388700	-0.000001	 27.498680	-4.271027	 2.103517	 35.638130	 6.314006	 26.007380	-2.327458	 0.473121	-11.886430	-91.776180	 78.527400	 180.000000	-19.180460	 36.498590	 24.340440	-2.404689	-0.938721	-114.030800	 6.079838	-27.479410	-0.798928	-4.130319	 21.525730	 0.991547	-5.167930	 0.731704	 3.519349	-1.378229	 35.397820	-2.634230	-13.480190	 8.416702	 7.807222	-19.702370	-23.373640	-15.723140	 89.782140	 78.305550	-179.999900	 46.725990	-17.583780	-15.069820	-13.279490	-7.571666	 46.097480	-38.368890	 3.031121	-62.079840	 5.716227	 19.173190	-3.685159	 5.027444	 0.246877	-9.377972	-2.350882	 35.473990	 5.254307
-0.421002	 0.226478	 1.265361	-170.090700	 2.948455	 10.245970	 23.479110	 5.345114	 175.118300	-12.981590	-28.779380	-6.614788	 120.378700	 63.891300	-129.956200	-2.385833	 28.452760	 0.000004	 10.080650	-37.104230	 166.839000	 2.782546	-47.281630	 0.925708	 12.304550	 69.801570	 2.850336	 2.384659	 28.388700	-0.000001	 27.746590	-4.168389	 1.603078	 35.855960	 5.451830	 26.035790	-2.329298	 1.048279	-12.077180	-91.776250	 78.527420	-179.999900	-17.320850	 35.832130	 23.336950	-2.382961	-0.892552	-113.967600	 4.982762	-26.114680	-1.114994	-4.130319	 21.525730	 0.991547	-5.167930	 0.731704	 3.519349	-1.378229	 35.397820	-2.634230	-13.163550	 8.974934	 6.958011	-19.808220	-24.041010	-15.606520	 89.782170	 78.303700	 180.000000	 49.150700	-17.381440	-14.204850	-13.468360	-7.741123	 45.980740	-37.346810	 5.795317	-59.433200	 5.716227	 19.173190	-3.685159	 5.027444	 0.246877	-9.377972	-2.350882	 35.473990	 5.254307
-0.421022	 0.226924	 1.265535	-170.495500	 3.290522	 10.516620	 23.559290	 4.862937	 175.100400	-13.142430	-28.879990	-6.716895	 121.490500	 63.023480	-130.828300	-2.385833	 28.452760	 0.000004	 9.721260	-37.446590	 166.478800	 2.856887	-47.191490	 0.978914	 12.828880	 69.755410	 2.157563	 2.384659	 28.388700	-0.000001	 28.296020	-5.241694	 1.862257	 35.831200	 5.957310	 25.574620	-2.554526	 0.836667	-12.434580	-91.776250	 78.527420	-179.999900	-15.522120	 35.319160	 22.544490	-2.406146	-0.948161	-113.892600	 4.115533	-24.693280	-1.302450	-4.130319	 21.525730	 0.991547	-5.167930	 0.731704	 3.519349	-1.378229	 35.397820	-2.634230	-13.250210	 8.963341	 6.922123	-19.977720	-24.187260	-16.014170	 89.782090	 78.303290	-179.999500	 51.947040	-17.067810	-13.140160	-13.421050	-7.637602	 45.783220	-36.539860	 8.050146	-57.189220	 5.716227	 19.173190	-3.685159	 5.027444	 0.246877	-9.377972	-2.350882	 35.473990	 5.254307
-0.420785	 0.227537	 1.266029	-171.345900	 3.632752	 10.603900	 23.363080	 4.714554	 175.528800	-13.175890	-28.527210	-6.659136	 120.935400	 62.985620	-130.007400	-2.385833	 28.452760	 0.000004	 9.093264	-37.780910	 166.186200	 3.201051	-47.255670	 1.232757	 11.968030	 70.065600	 3.160070	 2.384659	 28.388700	-0.000001	 29.533910	-6.616564	 2.618458	 35.723870	 7.095758	 24.771740	-3.145675	-0.006558	-12.995850	-91.776150	 78.527380	 180.000000	-11.956900	 34.107620	 21.068150	-2.395384	-0.928838	-113.776500	 2.602211	-21.946190	-1.648188	-4.130319	 21.525730	 0.991547	-5.167930	 0.731704	 3.519349	-1.378229	 35.397820	-2.634230	-13.495600	 7.998341	 6.585431	-20.222650	-23.920880	-15.287470	 89.782130	 78.303360	-179.998500	 56.372350	-16.412160	-11.461600	-12.926910	-7.053805	 45.526780	-35.605290	 10.364220	-54.319150	 5.716227	 19.173190	-3.685159	 5.027444	 0.246877	-9.377972	-2.350882	 35.473990	 5.254307
